<svg xmlns="http://www.w3.org/2000/svg" viewBox="0 0 36 36" aria-hidden="true">
  <defs>
    <clipPath id="flag-circle">
      <circle cx="18" cy="18" r="18"/>
    </clipPath>
  </defs>
  <g clip-path="url(#flag-circle)">
    <rect width="36" height="36" fill="#fff"/>
    <g transform="rotate(-33.690 18 18)">
      <circle cx="18" cy="18" r="7.4" fill="#0047a0"/>
      <path fill="#cd2e3a" d="M10.6 18a7.4 7.4 0 0 1 14.8 0 3.7 3.7 0 0 1-7.4 0 3.7 3.7 0 0 0-7.4 0z"/>
      <circle cx="18" cy="14.3" r="3.7" fill="#cd2e3a"/>
      <circle cx="18" cy="21.7" r="3.7" fill="#0047a0"/>
    </g>

    <g fill="#111" transform="rotate(-33.690 8.7 8.5)">
      <rect x="4.2" y="5.4" width="9" height="1.25" rx=".25"/>
      <rect x="4.2" y="7.9" width="9" height="1.25" rx=".25"/>
      <rect x="4.2" y="10.4" width="9" height="1.25" rx=".25"/>
    </g>

    <g fill="#111" transform="rotate(-33.690 27.3 27.5)">
      <rect x="22.8" y="24.4" width="3.7" height="1.25" rx=".25"/>
      <rect x="28.1" y="24.4" width="3.7" height="1.25" rx=".25"/>
      <rect x="22.8" y="26.9" width="3.7" height="1.25" rx=".25"/>
      <rect x="28.1" y="26.9" width="3.7" height="1.25" rx=".25"/>
      <rect x="22.8" y="29.4" width="3.7" height="1.25" rx=".25"/>
      <rect x="28.1" y="29.4" width="3.7" height="1.25" rx=".25"/>
    </g>

    <g fill="#111" transform="rotate(33.690 27.3 8.5)">
      <rect x="22.8" y="5.4" width="3.7" height="1.25" rx=".25"/>
      <rect x="28.1" y="5.4" width="3.7" height="1.25" rx=".25"/>
      <rect x="22.8" y="7.9" width="9" height="1.25" rx=".25"/>
      <rect x="22.8" y="10.4" width="3.7" height="1.25" rx=".25"/>
      <rect x="28.1" y="10.4" width="3.7" height="1.25" rx=".25"/>
    </g>

    <g fill="#111" transform="rotate(33.690 8.7 27.5)">
      <rect x="4.2" y="24.4" width="9" height="1.25" rx=".25"/>
      <rect x="4.2" y="26.9" width="3.7" height="1.25" rx=".25"/>
      <rect x="9.5" y="26.9" width="3.7" height="1.25" rx=".25"/>
      <rect x="4.2" y="29.4" width="9" height="1.25" rx=".25"/>
    </g>
  </g>
</svg>
